<svg width="42" height="48" viewBox="0 0 42 48" fill="none" xmlns="http://www.w3.org/2000/svg">
<path d="M41.25 38.75V41H0.75V38.75L5.25 34.25V20.75C5.25 13.775 9.8175 7.6325 16.5 5.6525V5C16.5 3.80653 16.9741 2.66193 17.818 1.81802C18.6619 0.974106 19.8065 0.5 21 0.5C22.1935 0.5 23.3381 0.974106 24.182 1.81802C25.0259 2.66193 25.5 3.80653 25.5 5V5.6525C32.1825 7.6325 36.75 13.775 36.75 20.75V34.25L41.25 38.75ZM25.5 43.25C25.5 44.4435 25.0259 45.5881 24.182 46.432C23.3381 47.2759 22.1935 47.75 21 47.75C19.8065 47.75 18.6619 47.2759 17.818 46.432C16.9741 45.5881 16.5 44.4435 16.5 43.25" fill="#8B8686"/>
</svg>
