<svg width="293" height="69" viewBox="0 0 293 69" fill="none" xmlns="http://www.w3.org/2000/svg">
<path d="M242.417 45.9167V22.0833C242.417 20.6247 242.996 19.2257 244.028 18.1943C245.059 17.1628 246.458 16.5833 247.917 16.5833H268.083V40.4167H247.917C244.892 40.4167 242.417 42.877 242.417 45.9167Z" fill="#0063FF" stroke="#0063FF" stroke-width="2" stroke-linejoin="round"/>
<path d="M268.083 40.4167H247.917C246.458 40.4167 245.059 40.9961 244.028 42.0276C242.996 43.059 242.417 44.458 242.417 45.9167C242.417 47.3754 242.996 48.7743 244.028 49.8058C245.059 50.8372 246.458 51.4167 247.917 51.4167H273.583V18.4167M248.833 45.9167H267.167" stroke="#0063FF" stroke-width="2" stroke-linecap="round" stroke-linejoin="round"/>
<g filter="url(#filter0_d_794_331)">
<path d="M27.088 33.8V33.928C28.0053 34.0773 28.88 34.3547 29.712 34.76C30.5653 35.1653 31.2693 35.7413 31.824 36.488C32.3787 37.2133 32.656 38.1627 32.656 39.336C32.656 41.1493 31.9733 42.5467 30.608 43.528C29.264 44.5093 27.3973 45 25.008 45H15.152V44.04C16.0267 44.04 16.6773 43.9653 17.104 43.816C17.552 43.6667 17.8507 43.368 18 42.92C18.1707 42.472 18.256 41.8107 18.256 40.936V27.848C18.256 26.9947 18.1707 26.3653 18 25.96C17.8507 25.5333 17.552 25.256 17.104 25.128C16.6773 25 16.0267 24.936 15.152 24.936V23.976H23.792C26.6507 23.976 28.6667 24.4133 29.84 25.288C31.0347 26.1627 31.632 27.3893 31.632 28.968C31.632 30.3973 31.2053 31.4747 30.352 32.2C29.4987 32.904 28.4107 33.4373 27.088 33.8ZM21.2 34.76V43.72C21.968 43.784 22.736 43.816 23.504 43.816C24.1867 43.816 24.8693 43.7733 25.552 43.688C26.2347 43.6027 26.8533 43.4213 27.408 43.144C27.984 42.8453 28.4427 42.408 28.784 41.832C29.1253 41.2347 29.296 40.424 29.296 39.4C29.296 38.184 29.008 37.2453 28.432 36.584C27.8773 35.9013 27.152 35.432 26.256 35.176C25.3813 34.8987 24.4427 34.76 23.44 34.76H21.2ZM21.2 33.416H23.376C25.3173 33.416 26.6507 33.0853 27.376 32.424C28.1013 31.7413 28.464 30.6747 28.464 29.224C28.464 27.9653 28.0587 26.984 27.248 26.28C26.4587 25.576 25.0827 25.224 23.12 25.224C22.48 25.224 21.84 25.256 21.2 25.32V33.416ZM51.2852 29.224C51.2852 30.4187 51.0079 31.3893 50.4532 32.136C49.9199 32.8827 49.2372 33.4693 48.4052 33.896C47.5946 34.3013 46.7519 34.6107 45.8772 34.824V34.952C46.2399 35.1653 46.6452 35.5387 47.0932 36.072C47.5626 36.584 48.1599 37.352 48.8852 38.376C49.6106 39.3787 50.5599 40.7227 51.7332 42.408C52.2452 43.112 52.7359 43.56 53.2052 43.752C53.6959 43.944 54.3039 44.04 55.0292 44.04V45H49.7492C48.8746 43.6773 48.1386 42.5787 47.5412 41.704C46.9652 40.808 46.4746 40.0613 46.0692 39.464C45.6639 38.8453 45.3012 38.3013 44.9812 37.832C44.6612 37.3627 44.3412 36.8933 44.0212 36.424C43.7012 35.9333 43.4026 35.6347 43.1252 35.528C42.8692 35.4213 42.4532 35.368 41.8772 35.368H40.9812V41.032C40.9812 41.9067 41.0559 42.568 41.2052 43.016C41.3546 43.4427 41.6532 43.72 42.1012 43.848C42.5492 43.976 43.2319 44.04 44.1492 44.04V45H35.1572V44.04C35.9679 44.04 36.5759 43.976 36.9812 43.848C37.3866 43.72 37.6532 43.4427 37.7812 43.016C37.9306 42.5893 38.0052 41.928 38.0052 41.032V27.304C38.0052 26.7067 37.9412 26.2373 37.8132 25.896C37.7066 25.5547 37.4506 25.3093 37.0452 25.16C36.6399 25.0107 36.0106 24.936 35.1572 24.936V23.976H43.0292C44.6292 23.976 46.0479 24.136 47.2852 24.456C48.5439 24.7547 49.5252 25.288 50.2292 26.056C50.9332 26.8027 51.2852 27.8587 51.2852 29.224ZM40.9812 25.32V34.12L42.1972 34.152C43.9679 34.0667 45.3866 33.672 46.4532 32.968C47.5199 32.2427 48.0532 31.0373 48.0532 29.352C48.0532 28.072 47.6586 27.0693 46.8692 26.344C46.0799 25.5973 44.8212 25.224 43.0932 25.224C42.3679 25.224 41.6639 25.256 40.9812 25.32ZM77.723 45H69.115V44.04C69.435 44.04 69.7657 44.0187 70.107 43.976C70.4483 43.9333 70.7363 43.8267 70.971 43.656C71.2057 43.4853 71.323 43.2187 71.323 42.856C71.323 42.6213 71.2803 42.3547 71.195 42.056C71.131 41.736 70.9923 41.3413 70.779 40.872L69.531 37.992H61.339L59.899 41.384C59.8137 41.64 59.7283 41.896 59.643 42.152C59.579 42.3867 59.547 42.6533 59.547 42.952C59.547 43.4 59.7177 43.6987 60.059 43.848C60.4003 43.976 60.9443 44.04 61.691 44.04V45H54.971V44.04C55.5683 44.04 56.0483 43.944 56.411 43.752C56.7737 43.56 57.1257 43.176 57.467 42.6C57.8083 42.0027 58.235 41.096 58.747 39.88L65.531 23.816H66.843L74.427 41.192C74.8963 42.2373 75.3443 42.9733 75.771 43.4C76.219 43.8267 76.8697 44.04 77.723 44.04V45ZM69.051 36.712L65.531 27.752H65.435L61.819 36.712H69.051ZM96.0185 40.232L96.7865 40.904C95.9332 42.2053 94.8132 43.272 93.4265 44.104C92.0398 44.936 90.3012 45.352 88.2105 45.352C86.0132 45.352 84.1678 44.8827 82.6745 43.944C81.1812 43.0053 80.0505 41.7147 79.2825 40.072C78.5358 38.4293 78.1625 36.5733 78.1625 34.504C78.1625 32.1787 78.6105 30.2053 79.5065 28.584C80.4025 26.9627 81.6398 25.7253 83.2185 24.872C84.7972 24.0187 86.6105 23.592 88.6585 23.592C89.7892 23.592 90.6958 23.688 91.3785 23.88C92.0612 24.072 92.6052 24.264 93.0105 24.456C93.4158 24.648 93.7465 24.744 94.0025 24.744C94.2585 24.744 94.4505 24.6373 94.5785 24.424C94.7278 24.1893 94.8985 23.912 95.0905 23.592H96.0505V30.92H94.9625C94.6212 28.8293 93.8958 27.3147 92.7865 26.376C91.6985 25.4373 90.3332 24.968 88.6905 24.968C86.3865 24.968 84.6052 25.7893 83.3465 27.432C82.1092 29.0747 81.4905 31.3253 81.4905 34.184C81.4905 36.3173 81.8105 38.056 82.4505 39.4C83.1118 40.744 84.0185 41.736 85.1705 42.376C86.3225 43.016 87.6452 43.336 89.1385 43.336C90.6105 43.336 91.9012 43.0693 93.0105 42.536C94.1198 41.9813 95.1225 41.2133 96.0185 40.232ZM121.488 23.976V24.936C120.571 24.936 119.899 25.0427 119.472 25.256C119.045 25.4693 118.768 25.864 118.64 26.44C118.533 26.9947 118.48 27.8267 118.48 28.936V36.648C118.48 39.5493 117.808 41.736 116.464 43.208C115.141 44.6587 112.965 45.384 109.936 45.384C107.099 45.384 105.029 44.7333 103.728 43.432C102.427 42.1093 101.776 39.9653 101.776 37V27.752C101.776 26.6213 101.563 25.8747 101.136 25.512C100.731 25.128 99.8987 24.936 98.64 24.936V23.976H107.856V24.936C106.96 24.936 106.288 25.0213 105.84 25.192C105.392 25.3413 105.093 25.6293 104.944 26.056C104.795 26.4827 104.72 27.1013 104.72 27.912V36.968C104.72 39.0373 105.147 40.6267 106 41.736C106.875 42.824 108.453 43.368 110.736 43.368C112.827 43.368 114.331 42.8773 115.248 41.896C116.187 40.8933 116.656 39.2933 116.656 37.096V29.032C116.656 27.9013 116.592 27.048 116.464 26.472C116.336 25.8747 116.059 25.4693 115.632 25.256C115.205 25.0427 114.544 24.936 113.648 24.936V23.976H121.488ZM130.714 23.976H139.514C141.178 23.976 142.724 24.1573 144.154 24.52C145.604 24.8613 146.863 25.4373 147.93 26.248C148.996 27.0587 149.828 28.1253 150.426 29.448C151.044 30.7707 151.354 32.4133 151.354 34.376C151.354 36.8293 150.874 38.8453 149.914 40.424C148.975 41.9813 147.642 43.1333 145.914 43.88C144.186 44.6267 142.17 45 139.866 45H130.714V44.04C131.652 44.04 132.346 43.976 132.794 43.848C133.242 43.6987 133.53 43.4107 133.658 42.984C133.786 42.536 133.85 41.8853 133.85 41.032V27.624C133.85 26.8347 133.754 26.2587 133.562 25.896C133.37 25.512 133.05 25.256 132.602 25.128C132.154 25 131.524 24.936 130.714 24.936V23.976ZM136.794 25.352V43.688C137.434 43.752 138.063 43.784 138.682 43.784C140.623 43.784 142.287 43.528 143.674 43.016C145.06 42.4827 146.127 41.5547 146.874 40.232C147.62 38.9093 147.994 37.0533 147.994 34.664C147.994 31.6133 147.215 29.288 145.658 27.688C144.1 26.088 141.668 25.288 138.362 25.288C138.106 25.288 137.85 25.288 137.594 25.288C137.359 25.288 137.092 25.3093 136.794 25.352ZM157.225 40.808V28.2C157.225 27.368 157.171 26.7173 157.065 26.248C156.958 25.7573 156.681 25.416 156.233 25.224C155.806 25.032 155.081 24.936 154.057 24.936V23.976H163.273V24.936C162.27 24.936 161.545 25.032 161.097 25.224C160.649 25.416 160.371 25.7573 160.265 26.248C160.179 26.7173 160.137 27.368 160.137 28.2V40.808C160.137 41.7253 160.201 42.4187 160.329 42.888C160.457 43.336 160.745 43.6453 161.193 43.816C161.641 43.9653 162.334 44.04 163.273 44.04V45H154.057V44.04C155.017 44.04 155.721 43.9653 156.169 43.816C156.617 43.6453 156.905 43.336 157.033 42.888C157.161 42.4187 157.225 41.7253 157.225 40.808ZM187.254 45H178.646V44.04C178.966 44.04 179.297 44.0187 179.638 43.976C179.98 43.9333 180.268 43.8267 180.502 43.656C180.737 43.4853 180.854 43.2187 180.854 42.856C180.854 42.6213 180.812 42.3547 180.726 42.056C180.662 41.736 180.524 41.3413 180.31 40.872L179.062 37.992H170.87L169.43 41.384C169.345 41.64 169.26 41.896 169.174 42.152C169.11 42.3867 169.078 42.6533 169.078 42.952C169.078 43.4 169.249 43.6987 169.59 43.848C169.932 43.976 170.476 44.04 171.222 44.04V45H164.502V44.04C165.1 44.04 165.58 43.944 165.942 43.752C166.305 43.56 166.657 43.176 166.998 42.6C167.34 42.0027 167.766 41.096 168.278 39.88L175.062 23.816H176.374L183.958 41.192C184.428 42.2373 184.876 42.9733 185.302 43.4C185.75 43.8267 186.401 44.04 187.254 44.04V45ZM178.582 36.712L175.062 27.752H174.966L171.35 36.712H178.582ZM204.879 29.224C204.879 30.4187 204.602 31.3893 204.047 32.136C203.514 32.8827 202.831 33.4693 201.999 33.896C201.188 34.3013 200.346 34.6107 199.471 34.824V34.952C199.834 35.1653 200.239 35.5387 200.687 36.072C201.156 36.584 201.754 37.352 202.479 38.376C203.204 39.3787 204.154 40.7227 205.327 42.408C205.839 43.112 206.33 43.56 206.799 43.752C207.29 43.944 207.898 44.04 208.623 44.04V45H203.343C202.468 43.6773 201.732 42.5787 201.135 41.704C200.559 40.808 200.068 40.0613 199.663 39.464C199.258 38.8453 198.895 38.3013 198.575 37.832C198.255 37.3627 197.935 36.8933 197.615 36.424C197.295 35.9333 196.996 35.6347 196.719 35.528C196.463 35.4213 196.047 35.368 195.471 35.368H194.575V41.032C194.575 41.9067 194.65 42.568 194.799 43.016C194.948 43.4427 195.247 43.72 195.695 43.848C196.143 43.976 196.826 44.04 197.743 44.04V45H188.751V44.04C189.562 44.04 190.17 43.976 190.575 43.848C190.98 43.72 191.247 43.4427 191.375 43.016C191.524 42.5893 191.599 41.928 191.599 41.032V27.304C191.599 26.7067 191.535 26.2373 191.407 25.896C191.3 25.5547 191.044 25.3093 190.639 25.16C190.234 25.0107 189.604 24.936 188.751 24.936V23.976H196.623C198.223 23.976 199.642 24.136 200.879 24.456C202.138 24.7547 203.119 25.288 203.823 26.056C204.527 26.8027 204.879 27.8587 204.879 29.224ZM194.575 25.32V34.12L195.791 34.152C197.562 34.0667 198.98 33.672 200.047 32.968C201.114 32.2427 201.647 31.0373 201.647 29.352C201.647 28.072 201.252 27.0693 200.463 26.344C199.674 25.5973 198.415 25.224 196.687 25.224C195.962 25.224 195.258 25.256 194.575 25.32ZM227.583 23.976V24.936C226.964 24.9787 226.431 25.0853 225.983 25.256C225.556 25.4267 225.14 25.7253 224.735 26.152C224.351 26.5787 223.892 27.2293 223.359 28.104L218.623 36.008V40.808C218.623 41.7467 218.708 42.4507 218.879 42.92C219.071 43.368 219.401 43.6667 219.871 43.816C220.361 43.9653 221.055 44.04 221.951 44.04V45H212.479V44.04C213.417 44.04 214.111 43.976 214.559 43.848C215.028 43.6987 215.327 43.3893 215.455 42.92C215.604 42.4507 215.679 41.7467 215.679 40.808V36.168L211.615 29.608C210.953 28.52 210.388 27.6667 209.919 27.048C209.449 26.4293 209.023 25.9707 208.639 25.672C208.276 25.352 207.935 25.1493 207.615 25.064C207.295 24.9787 206.943 24.936 206.559 24.936V23.976H215.167V24.936C214.271 24.936 213.684 25 213.407 25.128C213.151 25.256 213.023 25.4373 213.023 25.672C213.023 26.0987 213.204 26.5893 213.567 27.144L216.447 31.752L217.855 34.248H218.047L222.271 27.048C222.377 26.8773 222.463 26.6853 222.527 26.472C222.612 26.2587 222.655 26.0347 222.655 25.8C222.655 25.5013 222.516 25.288 222.239 25.16C221.961 25.0107 221.417 24.936 220.607 24.936V23.976H227.583Z" fill="#0063FF"/>
</g>
<line x1="14.0001" y1="11.5" x2="282" y2="11.5469" stroke="#D9D9D9"/>
<line x1="14" y1="59.5" x2="282" y2="59.5" stroke="#D9D9D9"/>
<defs>
<filter id="filter0_d_794_331" x="11.152" y="23.592" width="220.431" height="29.792" filterUnits="userSpaceOnUse" color-interpolation-filters="sRGB">
<feFlood flood-opacity="0" result="BackgroundImageFix"/>
<feColorMatrix in="SourceAlpha" type="matrix" values="0 0 0 0 0 0 0 0 0 0 0 0 0 0 0 0 0 0 127 0" result="hardAlpha"/>
<feOffset dy="4"/>
<feGaussianBlur stdDeviation="2"/>
<feComposite in2="hardAlpha" operator="out"/>
<feColorMatrix type="matrix" values="0 0 0 0 0 0 0 0 0 0 0 0 0 0 0 0 0 0 0.25 0"/>
<feBlend mode="normal" in2="BackgroundImageFix" result="effect1_dropShadow_794_331"/>
<feBlend mode="normal" in="SourceGraphic" in2="effect1_dropShadow_794_331" result="shape"/>
</filter>
</defs>
</svg>
