<svg width="196" height="22" viewBox="0 0 196 22" fill="none" xmlns="http://www.w3.org/2000/svg">
<path d="M19.616 5.32C19.616 5.93867 19.52 6.49333 19.328 6.984C19.1573 7.47467 18.912 7.912 18.592 8.296C18.272 8.68 17.8987 9.02133 17.472 9.32C17.0453 9.61867 16.576 9.896 16.064 10.152C16.2987 10.2373 16.576 10.376 16.896 10.568C17.216 10.7387 17.5253 10.984 17.824 11.304C18.1227 11.624 18.368 12.04 18.56 12.552C18.7733 13.0427 18.88 13.6507 18.88 14.376C18.88 15.336 18.6773 16.2213 18.272 17.032C17.8667 17.8427 17.2587 18.5467 16.448 19.144C15.6587 19.72 14.6773 20.1787 13.504 20.52C12.352 20.84 11.0187 21 9.504 21H0L4.32 0.679998H12.736C13.568 0.679998 14.3893 0.743999 15.2 0.872C16.032 0.978666 16.768 1.20267 17.408 1.544C18.0693 1.88533 18.6027 2.36533 19.008 2.984C19.4133 3.58133 19.616 4.36 19.616 5.32ZM10.912 9.192C11.3813 9.192 11.776 9.05333 12.096 8.776C12.4373 8.49867 12.7147 8.15733 12.928 7.752C13.1413 7.32533 13.3013 6.87733 13.408 6.408C13.5147 5.91733 13.568 5.48 13.568 5.096C13.568 4.47733 13.4187 3.95467 13.12 3.528C12.8427 3.08 12.3947 2.856 11.776 2.856H10.816L9.44 9.192H10.912ZM8.608 18.984C9.248 18.984 9.78133 18.8027 10.208 18.44C10.6347 18.0773 10.9867 17.6293 11.264 17.096C11.5413 16.5627 11.7333 16.008 11.84 15.432C11.968 14.8347 12.032 14.312 12.032 13.864C12.032 13.1173 11.872 12.5307 11.552 12.104C11.2533 11.656 10.7627 11.432 10.08 11.432H8.896L7.328 18.984H8.608ZM39.8423 5.512C39.8423 6.77067 39.4903 7.93333 38.7863 9C38.0823 10.0667 36.9196 10.8773 35.2983 11.432L39.0103 21H31.8743L29.0583 12.136H28.7063L26.8183 21H19.9062L24.2263 0.679998H32.6423C33.6236 0.679998 34.5516 0.743999 35.4263 0.872C36.3009 0.978666 37.0583 1.21333 37.6983 1.576C38.3596 1.91733 38.8823 2.408 39.2663 3.048C39.6503 3.66667 39.8423 4.488 39.8423 5.512ZM30.6263 10.088C31.1809 10.088 31.6503 9.90667 32.0343 9.544C32.4396 9.16 32.7596 8.70133 32.9943 8.168C33.2503 7.63467 33.4316 7.06933 33.5383 6.472C33.6449 5.85333 33.6983 5.32 33.6983 4.872C33.6983 4.31733 33.6023 3.848 33.4103 3.464C33.2183 3.05867 32.8023 2.856 32.1623 2.856H30.7223L29.1223 10.088H30.6263ZM57.8843 21H50.3963L49.9483 15.912H44.0283L41.7563 21H38.6522L48.0923 0.679998H55.6763L57.8843 21ZM45.0843 13.576H49.7243L48.9883 4.872L45.0843 13.576ZM76.7043 19.272C76.1709 19.528 75.6163 19.784 75.0403 20.04C74.4856 20.2747 73.8883 20.488 73.2483 20.68C72.6083 20.8507 71.9043 20.9893 71.1363 21.096C70.3896 21.2027 69.5683 21.256 68.6723 21.256C65.8136 21.256 63.6056 20.616 62.0483 19.336C60.5123 18.056 59.7443 15.9227 59.7443 12.936C59.7443 11.208 60.0109 9.58667 60.5443 8.072C61.0776 6.536 61.8669 5.20267 62.9123 4.072C63.9576 2.92 65.2483 2.01333 66.7843 1.352C68.3203 0.690666 70.0803 0.359999 72.0643 0.359999C73.0029 0.359999 73.8563 0.423999 74.6243 0.551998C75.4136 0.679999 76.1176 0.850666 76.7362 1.064C77.3763 1.256 77.9416 1.46933 78.4323 1.704C78.9443 1.93867 79.4029 2.16267 79.8083 2.376L78.6562 8.328H72.8963C72.9176 8.11467 72.9389 7.83733 72.9603 7.496C73.0029 7.15467 73.0349 6.81333 73.0563 6.472C73.0776 6.10933 73.0989 5.75733 73.1203 5.416C73.1416 5.07467 73.1523 4.78667 73.1523 4.552C73.1523 4.38133 73.1416 4.18933 73.1203 3.976C73.0989 3.74133 73.0456 3.51733 72.9603 3.304C72.8749 3.09067 72.7363 2.92 72.5443 2.792C72.3736 2.64267 72.1389 2.568 71.8403 2.568C71.2856 2.568 70.7736 2.80267 70.3043 3.272C69.8563 3.72 69.4509 4.328 69.0883 5.096C68.7256 5.84267 68.4056 6.696 68.1283 7.656C67.8509 8.616 67.6163 9.59733 67.4243 10.6C67.2536 11.5813 67.1149 12.552 67.0083 13.512C66.9229 14.472 66.8802 15.3147 66.8802 16.04C66.8802 16.2533 66.8909 16.52 66.9123 16.84C66.9336 17.16 66.9976 17.4693 67.1042 17.768C67.2109 18.0667 67.3709 18.3227 67.5843 18.536C67.8189 18.7493 68.1283 18.856 68.5123 18.856C69.1736 18.856 69.8136 18.4507 70.4323 17.64C71.0509 16.808 71.5949 15.336 72.0643 13.224H77.9843L76.7043 19.272ZM87.6378 13.736C87.5311 14.2053 87.4458 14.6107 87.3818 14.952C87.3178 15.2933 87.2858 15.6133 87.2858 15.912C87.2858 16.6587 87.5418 17.256 88.0538 17.704C88.5871 18.152 89.3658 18.376 90.3898 18.376C91.1364 18.376 91.7444 18.248 92.2138 17.992C92.7044 17.736 93.0991 17.3947 93.3978 16.968C93.7178 16.5413 93.9631 16.0507 94.1338 15.496C94.3258 14.9413 94.4858 14.3547 94.6138 13.736L97.3338 0.679998H100.246L97.4618 13.8C97.2484 14.824 96.9391 15.784 96.5338 16.68C96.1284 17.576 95.5418 18.3653 94.7738 19.048C94.0271 19.7307 93.0564 20.2747 91.8618 20.68C90.6671 21.064 89.1844 21.256 87.4138 21.256C84.9604 21.256 83.1471 20.8613 81.9738 20.072C80.8004 19.2613 80.2138 18.024 80.2138 16.36C80.2138 15.6133 80.3098 14.664 80.5018 13.512C80.6938 12.36 80.9391 11.112 81.2378 9.768L83.1898 0.679998H90.4538L87.6378 13.736ZM105.375 21L109.695 0.679998H118.303C119.626 0.679998 120.778 0.818665 121.759 1.096C122.762 1.352 123.583 1.78933 124.223 2.408C124.884 3.02667 125.375 3.83733 125.695 4.84C126.036 5.84267 126.207 7.06933 126.207 8.52C126.207 10.0773 126.004 11.6027 125.599 13.096C125.215 14.5893 124.564 15.9227 123.647 17.096C122.73 18.2693 121.524 19.2187 120.031 19.944C118.559 20.648 116.735 21 114.559 21H105.375ZM114.143 18.76C114.847 18.76 115.466 18.472 115.999 17.896C116.554 17.2987 117.023 16.552 117.407 15.656C117.812 14.7387 118.143 13.736 118.399 12.648C118.676 11.5387 118.89 10.472 119.039 9.448C119.21 8.424 119.327 7.50667 119.391 6.696C119.476 5.88533 119.519 5.30933 119.519 4.968C119.519 4.30667 119.38 3.79467 119.103 3.432C118.847 3.048 118.388 2.856 117.727 2.856H116.191L112.767 18.76H114.143ZM133.475 21H126.562L130.883 0.679998H137.827L133.475 21ZM154.728 21H147.24L146.792 15.912H140.872L138.6 21H135.496L144.936 0.679998H152.52L154.728 21ZM141.928 13.576H146.568L145.832 4.872L141.928 13.576ZM176.186 5.512C176.186 6.77067 175.834 7.93333 175.13 9C174.426 10.0667 173.263 10.8773 171.642 11.432L175.354 21H168.218L165.402 12.136H165.05L163.162 21H156.25L160.57 0.679998H168.986C169.967 0.679998 170.895 0.743999 171.77 0.872C172.645 0.978666 173.402 1.21333 174.042 1.576C174.703 1.91733 175.226 2.408 175.61 3.048C175.994 3.66667 176.186 4.488 176.186 5.512ZM166.97 10.088C167.525 10.088 167.994 9.90667 168.378 9.544C168.783 9.16 169.103 8.70133 169.338 8.168C169.594 7.63467 169.775 7.06933 169.882 6.472C169.989 5.85333 170.042 5.32 170.042 4.872C170.042 4.31733 169.946 3.848 169.754 3.464C169.562 3.05867 169.146 2.856 168.506 2.856H167.066L165.466 10.088H166.97ZM187.698 13.32L186.066 21H179.122L180.882 12.776L177.746 0.679998H185.426L187.602 8.712L192.402 0.679998H195.858L187.698 13.32Z" fill="#1385B5"/>
</svg>
