<svg width="66" height="40" viewBox="0 0 66 40" fill="none" xmlns="http://www.w3.org/2000/svg">
<path d="M52.25 33.75V39.25H19.25V33.75C19.25 33.75 19.25 22.75 35.75 22.75C52.25 22.75 52.25 33.75 52.25 33.75ZM44 9C44 7.36831 43.5161 5.77325 42.6096 4.41655C41.7031 3.05984 40.4146 2.00242 38.9071 1.378C37.3996 0.753575 35.7408 0.590197 34.1405 0.908525C32.5402 1.22685 31.0702 2.01259 29.9164 3.16637C28.7626 4.32016 27.9768 5.79016 27.6585 7.39051C27.3402 8.99085 27.5036 10.6497 28.128 12.1571C28.7524 13.6646 29.8098 14.9531 31.1665 15.8596C32.5233 16.7661 34.1183 17.25 35.75 17.25C37.938 17.25 40.0365 16.3808 41.5836 14.8336C43.1308 13.2865 44 11.188 44 9ZM52.8 22.915C54.3032 24.3018 55.5152 25.9742 56.365 27.8345C57.2149 29.6948 57.6857 31.7058 57.75 33.75V39.25H66V33.75C66 33.75 66 24.2625 52.8 22.915ZM49.5 0.750003C48.6691 0.750051 47.8433 0.879952 47.0525 1.135C48.6614 3.44217 49.524 6.18726 49.524 9C49.524 11.8128 48.6614 14.5578 47.0525 16.865C47.8433 17.1201 48.6691 17.25 49.5 17.25C51.688 17.25 53.7865 16.3808 55.3336 14.8336C56.8808 13.2865 57.75 11.188 57.75 9C57.75 6.81197 56.8808 4.71355 55.3336 3.16637C53.7865 1.6192 51.688 0.750003 49.5 0.750003ZM22 14.5H13.75V6.25H8.25V14.5H0V20H8.25V28.25H13.75V20H22V14.5Z" fill="#6C6C6C"/>
</svg>
