<svg width="67" height="67" viewBox="0 0 67 67" fill="none" xmlns="http://www.w3.org/2000/svg">
<path d="M58.6794 26.1719C58.1969 27.1726 57.937 28.266 57.9175 29.3769C57.898 30.4877 58.1193 31.5896 58.5664 32.6067L39.2676 55.9227C38.8322 56.4487 38.2498 56.8331 37.5949 57.0265C36.94 57.2199 36.2423 57.2137 35.591 57.0086L11.9037 49.5521C10.4285 49.1578 9.07222 48.4083 7.95346 47.369C7.21744 46.435 6.71283 45.3402 6.48086 44.1739C6.22553 42.6538 6.23166 41.1011 6.499 39.583C7.38675 35.2783 10.5609 36.5443 10.5609 36.5443" stroke="black" stroke-width="0.5" stroke-linecap="round" stroke-linejoin="round"/>
<path d="M10.5622 36.5457L34.7171 44.7141C35.3634 44.9317 36.06 44.951 36.7174 44.7697C37.3747 44.5884 37.9629 44.2147 38.4063 43.6966L60.399 17.9518C60.5546 17.7698 60.6603 17.5507 60.7061 17.3157C60.7518 17.0807 60.736 16.8379 60.6601 16.6108C60.5842 16.3837 60.4509 16.1802 60.2731 16.0199C60.0953 15.8596 59.879 15.7481 59.6453 15.6961L33.5348 9.92716C32.8536 9.77593 32.1441 9.81324 31.4825 10.0351C30.821 10.2569 30.2324 10.6549 29.78 11.1862L7.69238 37.1026" stroke="black" stroke-width="0.5" stroke-linecap="round" stroke-linejoin="round"/>
<path d="M27.5649 21.0938L45.1873 26.1216L49.6121 21.1343L31.4509 16.7905L27.5649 21.0938Z" stroke="black" stroke-width="0.5" stroke-linejoin="round"/>
</svg>
