<svg width="30" height="30" viewBox="0 0 30 30" fill="none" xmlns="http://www.w3.org/2000/svg">
<path opacity="0.25" d="M28.3393 26.3677L23.6186 21.6609C25.1417 19.7205 25.9681 17.3243 25.9651 14.8575C25.9651 12.6607 25.3136 10.5131 24.0931 8.68652C22.8726 6.8599 21.1378 5.43622 19.1082 4.59552C17.0786 3.75481 14.8452 3.53485 12.6906 3.96343C10.5359 4.39202 8.55674 5.44991 7.00333 7.00333C5.44991 8.55674 4.39202 10.5359 3.96343 12.6906C3.53485 14.8452 3.75481 17.0786 4.59552 19.1082C5.43622 21.1378 6.8599 22.8726 8.68652 24.0931C10.5131 25.3136 12.6607 25.9651 14.8575 25.9651C17.3243 25.9681 19.7205 25.1417 21.6609 23.6186L26.3677 28.3393C26.4968 28.4694 26.6504 28.5727 26.8195 28.6432C26.9887 28.7137 27.1702 28.75 27.3535 28.75C27.5368 28.75 27.7183 28.7137 27.8875 28.6432C28.0567 28.5727 28.2102 28.4694 28.3393 28.3393C28.4694 28.2102 28.5727 28.0567 28.6432 27.8875C28.7137 27.7183 28.75 27.5368 28.75 27.3535C28.75 27.1702 28.7137 26.9887 28.6432 26.8195C28.5727 26.6504 28.4694 26.4968 28.3393 26.3677ZM6.52689 14.8575C6.52689 13.2099 7.01547 11.5992 7.93085 10.2293C8.84624 8.85931 10.1473 7.79155 11.6695 7.16102C13.1918 6.53049 14.8668 6.36552 16.4828 6.68696C18.0988 7.0084 19.5831 7.80182 20.7482 8.96688C21.9133 10.1319 22.7067 11.6163 23.0281 13.2323C23.3496 14.8483 23.1846 16.5233 22.5541 18.0455C21.9235 19.5678 20.8558 20.8688 19.4858 21.7842C18.1158 22.6996 16.5052 23.1882 14.8575 23.1882C12.6481 23.1882 10.5292 22.3105 8.96688 20.7482C7.40458 19.1859 6.52689 17.067 6.52689 14.8575Z" fill="#8E8E8E"/>
</svg>
